<svg width="2544" height="3744" viewBox="0 0 2544 3744" fill="none" xmlns="http://www.w3.org/2000/svg" >
<g clip-path="url(#clip0_232_34)">
<rect width="3744" height="2544" transform="matrix(0 -1 1 0 0 3744)" fill="white"/>
<path fill-rule="evenodd" clip-rule="evenodd" d="M502 3306.5L502 437.5H2042L2042 3306.5H502ZM511.023 1874.5L511.023 2442.5H602V2447.5H511.023L511.023 3297.49H932V3274.5H937V3297.49H1602V3274.5H1607V3297.49H2032.98V2447.5H1942V2442.5H2032.98L2032.98 1874.5L511.023 1874.5ZM511.023 1869.5L511.023 1301.5H602V1296.5H511.023L511.023 446.51H932V469.5H937V446.51H1602V469.5H1607V446.51H2032.98L2032.98 1296.5H1942V1301.5H2032.98V1869.5L511.023 1869.5Z" fill="black"/>
<path fill-rule="evenodd" clip-rule="evenodd" d="M1343 1872C1343 1832.79 1311.21 1801 1272 1801C1232.79 1801 1201 1832.79 1201 1872C1201 1911.21 1232.79 1943 1272 1943C1311.21 1943 1343 1911.21 1343 1872ZM1348 1872C1348 1830.03 1313.97 1796 1272 1796C1230.03 1796 1196 1830.03 1196 1872C1196 1913.97 1230.03 1948 1272 1948C1313.97 1948 1348 1913.97 1348 1872Z" fill="black"/>
<path fill-rule="evenodd" clip-rule="evenodd" d="M1450 1872C1450 1773.69 1370.31 1694 1272 1694C1173.69 1694 1094 1773.69 1094 1872C1094 1970.31 1173.69 2050 1272 2050C1370.31 2050 1450 1970.31 1450 1872ZM1455 1872C1455 1770.93 1373.07 1689 1272 1689C1170.93 1689 1089 1770.93 1089 1872C1089 1973.07 1170.93 2055 1272 2055C1373.07 2055 1455 1973.07 1455 1872Z" fill="black"/>
<path fill-rule="evenodd" clip-rule="evenodd" d="M1091 1021.96V443.043L1453 443.043V1021.96H1091ZM1086 438L1458 438V1027H1086V438Z" fill="black"/>
<path d="M1147 570L1147 647.546C1157.66 675.239 1197.63 730.015 1273.5 730.015C1348.77 730.015 1388.42 675.25 1399 647.549V570H1404V648.455L1403.84 648.877C1393.05 677.649 1351.93 735 1273.5 735C1194.48 735 1153.04 677.664 1142.16 648.883L1142 648.458L1142 570H1147Z" fill="black"/>
<path fill-rule="evenodd" clip-rule="evenodd" d="M1091 2723.04V3301.96H1453V2723.04H1091ZM1086 3307H1458V2718H1086V3307Z" fill="black"/>
<g filter="url(#filter0_d_232_34)">
<path d="M1147 3175L1147 3097.45C1157.66 3069.76 1197.63 3014.98 1273.5 3014.98C1348.77 3014.98 1388.42 3069.75 1399 3097.45V3175H1404V3096.55L1403.84 3096.12C1393.05 3067.35 1351.93 3010 1273.5 3010C1194.48 3010 1153.04 3067.34 1142.16 3096.12L1142 3096.54L1142 3175H1147Z" fill="black"/>
<path d="M1147 3175L1147 3097.45C1157.66 3069.76 1197.63 3014.98 1273.5 3014.98C1348.77 3014.98 1388.42 3069.75 1399 3097.45V3175H1404V3096.55L1403.84 3096.12C1393.05 3067.35 1351.93 3010 1273.5 3010C1194.48 3010 1153.04 3067.34 1142.16 3096.12L1142 3096.54L1142 3175H1147Z" stroke="black" stroke-dasharray="2 2"/>
</g>
<path d="M607.981 3302V2860.85C608.063 2860.65 608.173 2860.37 608.314 2860.02C608.653 2859.18 609.167 2857.93 609.859 2856.29C611.243 2853.01 613.342 2848.2 616.19 2842.06C621.886 2829.79 630.58 2812.24 642.552 2791.17C666.499 2749.02 703.55 2692.83 755.953 2636.65C860.74 2524.3 1026.87 2412 1272.5 2412C1518.13 2412 1684.26 2524.3 1789.05 2636.65C1841.45 2692.83 1878.5 2749.02 1902.45 2791.17C1914.42 2812.24 1923.11 2829.79 1928.81 2842.06C1931.66 2848.2 1933.76 2853.01 1935.14 2856.29C1935.83 2857.93 1936.35 2859.18 1936.69 2860.02C1936.83 2860.37 1936.94 2860.65 1937.02 2860.85V3302H1942V2859.91L1941.83 2859.48L1939.51 2860.38C1941.83 2859.48 1941.83 2859.47 1941.83 2859.47L1941.8 2859.39C1941.77 2859.33 1941.74 2859.24 1941.7 2859.13C1941.61 2858.91 1941.48 2858.58 1941.3 2858.15C1940.95 2857.28 1940.43 2856 1939.73 2854.34C1938.32 2851.01 1936.2 2846.14 1933.33 2839.95C1927.58 2827.57 1918.82 2809.89 1906.78 2788.69C1882.68 2746.29 1845.41 2689.77 1792.68 2633.23C1687.21 2520.14 1519.83 2407 1272.5 2407C1025.17 2407 857.794 2520.14 752.316 2633.23C699.588 2689.77 662.316 2746.29 638.224 2788.69C626.177 2809.89 617.422 2827.57 611.674 2839.95C608.8 2846.14 606.678 2851.01 605.272 2854.34C604.57 2856 604.046 2857.28 603.696 2858.15C603.522 2858.58 603.391 2858.91 603.303 2859.13C603.259 2859.24 603.226 2859.33 603.203 2859.39L603.178 2859.45L603.171 2859.47C603.169 2859.47 603.168 2859.48 605.491 2860.38L603.168 2859.48L603 2859.91V3302H607.981Z" fill="black"/>
<path d="M616.981 447V888.15C617.063 888.354 617.173 888.632 617.314 888.98C617.653 889.821 618.167 891.074 618.859 892.713C620.243 895.99 622.342 900.807 625.19 906.943C630.886 919.217 639.58 936.768 651.552 957.836C675.499 999.978 712.55 1056.17 764.953 1112.36C869.74 1224.7 1035.87 1337 1281.5 1337C1527.13 1337 1693.26 1224.7 1798.05 1112.36C1850.45 1056.17 1887.5 999.978 1911.45 957.836C1923.42 936.768 1932.11 919.217 1937.81 906.943C1940.66 900.807 1942.76 895.99 1944.14 892.713C1944.83 891.074 1945.35 889.821 1945.69 888.98C1945.83 888.632 1945.94 888.354 1946.02 888.15V447H1951V889.091L1950.83 889.526L1948.51 888.624C1950.83 889.526 1950.83 889.529 1950.83 889.534L1950.8 889.617C1950.77 889.675 1950.74 889.759 1950.7 889.871C1950.61 890.093 1950.48 890.423 1950.3 890.855C1949.95 891.721 1949.43 892.999 1948.73 894.663C1947.32 897.99 1945.2 902.86 1942.33 909.052C1936.58 921.436 1927.82 939.11 1915.78 960.311C1891.68 1002.71 1854.41 1059.24 1801.68 1115.77C1696.21 1228.86 1528.83 1342 1281.5 1342C1034.17 1342 866.794 1228.86 761.316 1115.77C708.588 1059.24 671.316 1002.71 647.224 960.311C635.177 939.11 626.422 921.436 620.674 909.052C617.8 902.86 615.678 897.99 614.272 894.663C613.57 892.999 613.046 891.721 612.696 890.855C612.522 890.423 612.391 890.093 612.303 889.871C612.259 889.759 612.226 889.675 612.203 889.617L612.178 889.551L612.171 889.534C612.169 889.529 612.168 889.526 614.491 888.624L612.168 889.526L612 889.091V447H616.981Z" fill="black"/>
<path fill-rule="evenodd" clip-rule="evenodd" d="M1087.91 995.271C1086.65 1004 1086 1012.92 1086 1022C1086 1124.72 1169.28 1208 1272 1208C1374.72 1208 1458 1124.72 1458 1022C1458 1012.92 1457.35 1004 1456.09 995.271L1451.06 995.995C1452.29 1004.48 1452.92 1013.17 1452.92 1022C1452.92 1121.92 1371.92 1202.92 1272 1202.92C1172.08 1202.92 1091.08 1121.92 1091.08 1022C1091.08 1013.17 1091.71 1004.48 1092.94 995.995L1087.91 995.271ZM1099.19 953.08L1103.91 954.964C1110.41 938.668 1119.22 923.536 1129.93 909.973L1125.94 906.823C1114.93 920.766 1105.88 936.322 1099.19 953.08ZM1156.82 875.941L1159.97 879.929C1173.54 869.219 1188.67 860.411 1204.96 853.906L1203.08 849.187C1186.32 855.876 1170.77 864.932 1156.82 875.941ZM1245.27 837.906C1254 836.65 1262.92 836 1272 836C1281.08 836 1290 836.65 1298.73 837.906L1298 842.936C1289.52 841.715 1280.83 841.082 1272 841.082C1263.17 841.082 1254.48 841.715 1246 842.936L1245.27 837.906ZM1340.92 849.187L1339.04 853.906C1355.33 860.411 1370.46 869.219 1384.03 879.93L1387.18 875.941C1373.23 864.932 1357.68 855.876 1340.92 849.187ZM1418.06 906.823L1414.07 909.973C1424.78 923.536 1433.59 938.668 1440.09 954.964L1444.81 953.08C1438.12 936.322 1429.07 920.766 1418.06 906.823Z" fill="black"/>
<path fill-rule="evenodd" clip-rule="evenodd" d="M1087.91 2744.73C1086.65 2736 1086 2727.08 1086 2718C1086 2615.28 1169.28 2532 1272 2532C1374.72 2532 1458 2615.28 1458 2718C1458 2727.08 1457.35 2736 1456.09 2744.73L1451.06 2744C1452.29 2735.52 1452.92 2726.83 1452.92 2718C1452.92 2618.08 1371.92 2537.08 1272 2537.08C1172.08 2537.08 1091.08 2618.08 1091.08 2718C1091.08 2726.83 1091.71 2735.52 1092.94 2744L1087.91 2744.73ZM1099.19 2786.92L1103.91 2785.04C1110.41 2801.33 1119.22 2816.46 1129.93 2830.03L1125.94 2833.18C1114.93 2819.23 1105.88 2803.68 1099.19 2786.92ZM1156.82 2864.06L1159.97 2860.07C1173.54 2870.78 1188.67 2879.59 1204.96 2886.09L1203.08 2890.81C1186.32 2884.12 1170.77 2875.07 1156.82 2864.06ZM1245.27 2902.09C1254 2903.35 1262.92 2904 1272 2904C1281.08 2904 1290 2903.35 1298.73 2902.09L1298 2897.06C1289.52 2898.29 1280.83 2898.92 1272 2898.92C1263.17 2898.92 1254.48 2898.29 1246 2897.06L1245.27 2902.09ZM1340.92 2890.81L1339.04 2886.09C1355.33 2879.59 1370.46 2870.78 1384.03 2860.07L1387.18 2864.06C1373.23 2875.07 1357.68 2884.12 1340.92 2890.81ZM1418.06 2833.18L1414.07 2830.03C1424.78 2816.46 1433.59 2801.33 1440.09 2785.04L1444.81 2786.92C1438.12 2803.68 1429.07 2819.23 1418.06 2833.18Z" fill="#060606"/>
</g>
<defs>
<filter id="filter0_d_232_34" x="1137.5" y="3009.5" width="271" height="174" filterUnits="userSpaceOnUse" color-interpolation-filters="sRGB">
<feFlood flood-opacity="0" result="BackgroundImageFix"/>
<feColorMatrix in="SourceAlpha" type="matrix" values="0 0 0 0 0 0 0 0 0 0 0 0 0 0 0 0 0 0 127 0" result="hardAlpha"/>
<feOffset dy="4"/>
<feGaussianBlur stdDeviation="2"/>
<feComposite in2="hardAlpha" operator="out"/>
<feColorMatrix type="matrix" values="0 0 0 0 0 0 0 0 0 0 0 0 0 0 0 0 0 0 0.25 0"/>
<feBlend mode="normal" in2="BackgroundImageFix" result="effect1_dropShadow_232_34"/>
<feBlend mode="normal" in="SourceGraphic" in2="effect1_dropShadow_232_34" result="shape"/>
</filter>
<clipPath id="clip0_232_34">
<rect width="3744" height="2544" fill="white" transform="matrix(0 -1 1 0 0 3744)"/>
</clipPath>
</defs>
</svg>
