<svg width="39" height="44" viewBox="0 0 39 44" fill="none" xmlns="http://www.w3.org/2000/svg">
<path d="M30.6455 15.216C34.245 17.4655 36.0445 18.5903 36.6617 20.0305C37.2007 21.288 37.2007 22.7118 36.6617 23.9695C36.0445 25.4095 34.245 26.5343 30.6455 28.784L13.74 39.35C9.74512 41.8468 7.74767 43.0953 6.09932 42.9625C4.66252 42.847 3.34545 42.1173 2.486 40.96C1.5 39.6325 1.5 37.277 1.5 32.566V11.4339C1.5 6.72298 1.5 4.36753 2.486 3.03996C3.34545 1.88276 4.66252 1.15278 6.09932 1.03726C7.74767 0.90476 9.74512 2.15316 13.74 4.64996L30.6455 15.216Z" stroke="white" stroke-width="2" stroke-linejoin="round"/>
</svg>
