<svg width="53" height="53" viewBox="0 0 53 53" fill="none" xmlns="http://www.w3.org/2000/svg">
<path d="M13.3516 25.786C16.2384 20.9238 21.5428 17.6667 27.6042 17.6667C36.7513 17.6667 44.1667 25.082 44.1667 34.2292C44.1667 35.4488 45.1554 36.4375 46.375 36.4375C47.5947 36.4375 48.5834 35.4488 48.5834 34.2292C48.5834 22.6427 39.1907 13.25 27.6042 13.25C20.5787 13.25 14.3627 16.7024 10.5559 22.0012L9.37005 15.2762C9.15827 14.0751 8.0129 13.2731 6.81181 13.4849C5.61069 13.6966 4.80869 14.842 5.0205 16.0431L7.32134 29.0917C7.42303 29.6685 7.74969 30.1813 8.22947 30.5174C8.85633 30.9562 9.68966 31.0364 10.3842 30.7941L22.9283 28.5822C24.1294 28.3705 24.9314 27.2252 24.7197 26.0241C24.5079 24.823 23.3624 24.0209 22.1613 24.2327L13.3516 25.786Z" fill="white"/>
</svg>
